<svg width="49" height="48" viewBox="0 0 49 48" fill="none" xmlns="http://www.w3.org/2000/svg">
<path fill-rule="evenodd" clip-rule="evenodd" d="M19.8991 16.9944C21.4181 16.1569 23.1681 15.8357 24.8855 16.0793C26.6028 16.3229 28.1945 17.1181 29.4206 18.3449C29.4239 18.3482 29.4271 18.3514 29.4304 18.3546C29.4344 18.3585 29.4384 18.3623 29.4424 18.3661L32.2374 20.9981H28.7579C28.2057 20.9981 27.7579 21.4458 27.7579 21.9981C27.7579 22.5504 28.2057 22.9981 28.7579 22.9981H34.7553H34.7579C34.8986 22.9981 35.0324 22.969 35.1538 22.9166C35.2749 22.8645 35.3875 22.7875 35.4839 22.6858C35.4924 22.6768 35.5007 22.6677 35.5089 22.6584C35.6754 22.4693 35.758 22.2334 35.7579 21.9981C35.7579 21.9971 35.7579 21.9961 35.7579 21.9951V15.9981C35.7579 15.4458 35.3102 14.9981 34.7579 14.9981C34.2057 14.9981 33.7579 15.4458 33.7579 15.9981V19.6828L30.8243 16.9202C29.2931 15.3928 27.3079 14.4029 25.1663 14.0991C23.0196 13.7946 20.8321 14.1961 18.9334 15.243C17.0348 16.2899 15.5278 17.9256 14.6396 19.9035C13.7514 21.8814 13.5301 24.0944 14.009 26.209C14.488 28.3236 15.6412 30.2253 17.295 31.6275C18.9488 33.0296 21.0135 33.8563 23.178 33.9829C25.3424 34.1096 27.4894 33.5293 29.2954 32.3295C31.1014 31.1298 32.4686 29.3755 33.1908 27.3312C33.3748 26.8104 33.1018 26.2392 32.5811 26.0552C32.0603 25.8712 31.489 26.1442 31.3051 26.6649C30.7272 28.3004 29.6335 29.7038 28.1887 30.6636C26.744 31.6234 25.0263 32.0877 23.2948 31.9864C21.5632 31.8851 19.9114 31.2237 18.5884 30.102C17.2654 28.9803 16.3428 27.4589 15.9596 25.7672C15.5764 24.0755 15.7535 22.3051 16.464 20.7228C17.1746 19.1405 18.3802 17.8319 19.8991 16.9944Z" fill="#002D55"/>
</svg>
