<svg width="49" height="48" viewBox="0 0 49 48" fill="none" xmlns="http://www.w3.org/2000/svg">
<path fill-rule="evenodd" clip-rule="evenodd" d="M31.4671 18.7071C31.8576 18.3166 31.8576 17.6834 31.4671 17.2929C31.0766 16.9024 30.4434 16.9024 30.0529 17.2929L24.76 22.5858L19.4671 17.2929C19.0766 16.9024 18.4434 16.9024 18.0529 17.2929C17.6624 17.6834 17.6624 18.3166 18.0529 18.7071L23.3458 24L18.0529 29.2929C17.6624 29.6834 17.6624 30.3166 18.0529 30.7071C18.4434 31.0976 19.0766 31.0976 19.4671 30.7071L24.76 25.4142L30.0529 30.7071C30.4434 31.0976 31.0766 31.0976 31.4671 30.7071C31.8576 30.3166 31.8576 29.6834 31.4671 29.2929L26.1742 24L31.4671 18.7071Z" fill="#002D55"/>
</svg>
